# xmcd
# 
# Track frame offsets:
#     150
#     12010
#     26457
#     39755
#     53710
#     66700
#     79662
#     93595
#     105870
#     117780
#     131627
#     143852
#     158520
#     169960
#     180662
#     192872
#     207440
#     220902
#     235130
#     247707
#     262610
# 
# Disc length: 3695
# 
# Revision: 1
# Processed by: cddbd v1.5.2PL0 Copyright (c) Steve Scherf et al.
# Submitted via: fre:ac v1.0.17
# 
DISCID=0c0e6d15
DTITLE=Bob Crosby's Bob Cats - Palesteena (1937-1940)
DYEAR=2005
DGENRE=Jazz
TTITLE0=March of the Bob Cats
TTITLE1=Stumbling
TTITLE2=Who's Sorry Now?
TTITLE3=Coquette
TTITLE4=Palesteena
TTITLE5=You're Driving Me Crazy!
TTITLE6=Slow Mood
TTITLE7=So Far, So Good
TTITLE8=Big Foot Jump
TTITLE9=Five Point Blues
TTITLE10=Tech Triumph
TTITLE11=Call Me a Taxi
TTITLE12=I Hear You Talking
TTITLE13=Blow, Blow Thou Winter Wind
TTITLE14=It Was A Lover and His Lass
TTITLE15=Hindustan
TTITLE16=Do You Ever Think of Me?
TTITLE17=The Love Nest
TTITLE18=Washington and Lee Swing
TTITLE19=It's All Over Now
TTITLE20=Till We Meet Again
EXTD=YEAR: 2005
EXTT0=
EXTT1=
EXTT2=
EXTT3=
EXTT4=
EXTT5=
EXTT6=
EXTT7=
EXTT8=
EXTT9=
EXTT10=
EXTT11=
EXTT12=
EXTT13=
EXTT14=
EXTT15=
EXTT16=
EXTT17=
EXTT18=
EXTT19=
EXTT20=
PLAYORDER=
